<svg width="32" height="32" viewBox="0 0 32 32" xmlns="http://www.w3.org/2000/svg">
  <defs>
    <!-- Blue gradient for rocket body -->
    <linearGradient id="rocketGradient" x1="0%" y1="0%" x2="100%" y2="100%">
      <stop offset="0%" style="stop-color:#1e40af" />
      <stop offset="50%" style="stop-color:#3b82f6" />
      <stop offset="100%" style="stop-color:#0284c7" />
    </linearGradient>
    <!-- Cyan gradient for rocket top -->
    <linearGradient id="topGradient" x1="0%" y1="0%" x2="100%" y2="100%">
      <stop offset="0%" style="stop-color:#06b6d4" />
      <stop offset="100%" style="stop-color:#0891b2" />
    </linearGradient>
  </defs>
  
  <!-- Background circle -->
  <circle cx="16" cy="16" r="15" fill="#1f2937" stroke="#374151" stroke-width="2"/>
  
  <!-- Rocket body -->
  <path d="M14.5 22 L14.5 12 Q14.5 9 16 9 Q17.5 9 17.5 12 L17.5 22 Q17.5 23 16 23 Q14.5 23 14.5 22 Z" fill="url(#rocketGradient)"/>
  
  <!-- Rocket top/nose cone -->
  <path d="M14.5 12 Q16 6 17.5 12 Z" fill="url(#topGradient)"/>
  
  <!-- Rocket window -->
  <circle cx="16" cy="14" r="2" fill="white"/>
  
  <!-- Rocket fins -->
  <path d="M14.5 20 L12 22 L14.5 22 Z" fill="url(#rocketGradient)"/>
  <path d="M17.5 20 L20 22 L17.5 22 Z" fill="url(#rocketGradient)"/>
  
  <!-- Rocket flames -->
  <path d="M14.5 23 Q16 26 17.5 23" fill="none" stroke="#f59e0b" stroke-width="2" stroke-linecap="round"/>
  <path d="M15 24 Q16 27 17 24" fill="none" stroke="#fbbf24" stroke-width="1.5" stroke-linecap="round"/>
</svg>